<svg xmlns="http://www.w3.org/2000/svg"  viewBox="0 0 96 96" width="96px" height="96px"><g data-name="Cash On Delivery"><rect width="35.73" height="28.11" x="34.44" y="48.9" fill="#4dc8ff" rx="2.25"/><path fill="#61e6ff" d="M70.17,51.15V54.5a1.5,1.5,0,0,1-3,0V51.9H37.44v2.6a1.5,1.5,0,0,1-3,0V51.15a2.25,2.25,0,0,1,2.25-2.25H67.92A2.25,2.25,0,0,1,70.17,51.15Z"/><path fill="#4daaff" d="M70.17,61.05V72.81L65.52,77H36.69a2.25,2.25,0,0,1-2.25-2.25V59.05l17.69,6.81a4.27,4.27,0,0,1,2.44,5.54C54.57,71.5,53.59,72.06,70.17,61.05Z"/><polygon fill="#4d7dd2" points="57.13 64.39 52.31 61.47 47.48 64.39 47.48 48.9 57.13 48.9 57.13 64.39"/><rect width="9.65" height="3" x="47.48" y="48.9" fill="#4dc8ff"/><path fill="#ffc7ae" d="M78.37,69.47A4.25,4.25,0,0,1,77,72.63l-19.91,18a17.19,17.19,0,0,1-17.44,3.35l-15.41-5.7c-1.4-.51-1.91-.43-5.2-.38V66.79l3.46-1.93a11.58,11.58,0,0,1,9.82-.69c21.59,8.31,20.35,7.71,21.18,8.47a4.27,4.27,0,0,1,1.1,4.71c0,.1-1,.68,17.21-11.42A4.25,4.25,0,0,1,78.37,69.47Z"/><path fill="#ffa990" d="M77,72.63l-19.91,18a17.19,17.19,0,0,1-17.44,3.35l-15.41-5.7c-1.4-.51-1.91-.43-5.2-.38V83.61c2.76,0,3.66-.18,5.2.38l15.41,5.7a17.19,17.19,0,0,0,17.44-3.35c21.82-19.68,20.26-18.15,20.74-19A4.25,4.25,0,0,1,77,72.63Z"/><path fill="#c5ccff" d="M19,67v24.2a1.27,1.27,0,0,1-1.27,1.27H13.47V65.72h4.27A1.27,1.27,0,0,1,19,67Z"/><path fill="#a2a9d2" d="M19,84.76v6.43a1.27,1.27,0,0,1-1.27,1.27H13.47v-9h4.27A1.28,1.28,0,0,1,19,84.76Z"/><rect width="12.47" height="26.75" x="1.01" y="65.72" fill="#e8efff"/><rect width="5" height="14.37" x="4.74" y="65.72" fill="#fff"/><rect width="12.47" height="8.98" x="1.01" y="83.48" fill="#cad1ff"/><path fill="#008c72" d="M66.08,30,22.71,39.56a1.07,1.07,0,0,1-1.29-.83c-2.59-11.86-1.77-8.06-5-22.6a1.09,1.09,0,0,1,.83-1.3L60.65,5.32a1.09,1.09,0,0,1,1.3.83c3.28,14.89,4.3,19.56,5,22.6A1.09,1.09,0,0,1,66.08,30Z"/><path fill="#00a072" d="M19.91,17.86a.52.52,0,0,1,.4-.62L58.93,8.77a.52.52,0,0,1,.61.4L63.46,27a.52.52,0,0,1-.39.62L24.45,36.11a.52.52,0,0,1-.62-.4C22.39,29.14,19.88,17.72,19.91,17.86Z"/><path fill="#007372" d="M66.08,30,46.79,34.27V18l19.12,6.18c1,4.37.76,3.47,1,4.58A1.09,1.09,0,0,1,66.08,30Z"/><path fill="#005a72" d="M66.08,30l-6.15,1.35a6.84,6.84,0,0,1,5.67-8.63c1.27,5.8,1.07,4.85,1.31,6A1.09,1.09,0,0,1,66.08,30Z"/><path fill="#006e72" d="M28.59,38.27l-5.88,1.29a1.07,1.07,0,0,1-1.29-.83L20.16,33a6.82,6.82,0,0,1,8.4,5.12A1.13,1.13,0,0,1,28.59,38.27Z"/><path fill="#006e72" d="M17.93,22.27c-.17,0,0,.68-1.47-6.14a1.09,1.09,0,0,1,.83-1.3L23,13.59A6.81,6.81,0,0,1,17.93,22.27Z"/><path fill="#006e72" d="M63.24,12a6.83,6.83,0,0,1-8.93-5.31l6.34-1.39a1.09,1.09,0,0,1,1.3.83Z"/><path fill="#fff" d="M77.5,25.48l-3,1.65a10,10,0,0,1-8.41.59l-17-6.54a3.65,3.65,0,0,1,2.38-6.9l14.81,4.56Z"/><line x1="64.63" x2="66.33" y1="18.32" y2="18.84" fill="none" stroke="#302d3d" stroke-linecap="round" stroke-linejoin="round" stroke-width="2"/><rect width="17.49" height="26.45" x="77.5" y="3.92" fill="#e8efff"/><path fill="#ffc7ae" d="M47.06,16.42a3.66,3.66,0,0,0,2.08,4.76c.24.09,17.34,6.68,17.6,6.74a9.92,9.92,0,0,0,7.81-.79l3-1.65v-18l-3,.05c-.57,0,.61.38-15.86-5.7A12.56,12.56,0,0,0,45.88,4.23L39.54,10,60.66,5.32a1.09,1.09,0,0,1,1.3.83l2.67,12.17c-14.07-4.37-13.44-4.2-14.17-4.2A3.67,3.67,0,0,0,47.06,16.42Z"/><path fill="#ffa990" d="M77.49,22.23v3.25l-2.95,1.65a10,10,0,0,1-8.42.59c-7.66-3-3.89-1.5-17-6.54a3.66,3.66,0,0,1-2.08-4.76,2.24,2.24,0,0,1,.13-.27,3.63,3.63,0,0,0,2,1.78c.21.08,17.35,6.68,17.6,6.74a9.92,9.92,0,0,0,7.81-.79Z"/><path fill="#006e72" d="M37.33,22.88a4.38,4.38,0,1,0,6.46-4.29A4.38,4.38,0,0,0,37.33,22.88Z"/><rect width="5" height="14.37" x="83.75" y="3.62" fill="#fff"/><rect width="17.5" height="8.98" x="77.5" y="21.39" fill="#cad1ff"/><path fill="#302d3d" d="M71.23,65.25c-.1.07-.06,1.12-.06-14a3.26,3.26,0,0,0-3.25-3.25H59.27a4.32,4.32,0,0,0-3.64-6.65A4.28,4.28,0,0,0,52.31,43a4.31,4.31,0,0,0-7,5H36.69a3.26,3.26,0,0,0-3.25,3.25V63.68l-.79-.3a12.62,12.62,0,0,0-8.45-.21,25.77,25.77,0,0,0-4.81,2.42,2.27,2.27,0,0,0-1.65-.72H1a1,1,0,0,0-1,1V92.61a1,1,0,0,0,1,1H17.74A2.27,2.27,0,0,0,20,91.34V89c3.75-.07.93-.75,19.27,6a18.1,18.1,0,0,0,18.45-3.55l19.91-18a5.25,5.25,0,0,0-6.41-8.27ZM48.48,50.05h7.65V62.76l-3.31-2a1,1,0,0,0-1,0l-3.31,2Zm7.15-6.65a2.33,2.33,0,0,1,0,4.65H53.31V45.73A2.32,2.32,0,0,1,55.63,43.4Zm-9,2.33a2.33,2.33,0,0,1,4.66,0v2.32H48.94A2.32,2.32,0,0,1,46.65,45.73ZM35.44,51.3a1.25,1.25,0,0,1,1.25-1.25h9.79V64.54a1,1,0,0,0,1.52.85l4.31-2.6c4.63,2.8,4.43,2.75,4.82,2.75a1,1,0,0,0,1-1V50.05h9.79a1.25,1.25,0,0,1,1.25,1.25V66.62c-14.47,9.6-13.29,8.87-13.34,8.77A5.26,5.26,0,0,0,52.49,71L35.44,64.46ZM18,67.14V82.66a27.12,27.12,0,0,0-3.53,0V66.87h3.26A.26.26,0,0,1,18,67.14ZM2,66.87H12.47V91.61H2ZM17.74,91.61H14.48v-7h3.26a.28.28,0,0,1,.27.27v6.44A.27.27,0,0,1,17.74,91.61ZM76.3,72,56.39,90A16.13,16.13,0,0,1,40,93.15C21.86,86.45,24.16,86.93,20,87V67.53L23,65.88a10.63,10.63,0,0,1,9-.63c21.55,8.28,20.3,7.72,20.93,8.33a3.3,3.3,0,0,1,.73,1,3.27,3.27,0,0,1-4,4.42L32.35,73.73a1,1,0,0,0-.59,1.92L49.05,81a5.28,5.28,0,0,0,6.29-2.76l17-11.28a3.24,3.24,0,0,1,4,5.11Z"/><path fill="#302d3d" d="M95,3.07H77.5a1,1,0,0,0-1,1V6.6l-2,0c-.32,0,.61.3-15.48-5.64A13.53,13.53,0,0,0,45.2,3.64L39.06,9.18,17.07,14a2.1,2.1,0,0,0-1.59,2.49l5,22.59a2.1,2.1,0,0,0,2,1.66c.37,0,43.72-9.55,43.82-9.57a2.07,2.07,0,0,0,1.62-1.8,10,10,0,0,0,1.8.16c3.12,0,4.93-1.16,6.79-2.2v3.19a1,1,0,0,0,1,1H95a1,1,0,0,0,1-1V4.07A1,1,0,0,0,95,3.07ZM61,6.52l1.08,4.93a5.84,5.84,0,0,1-6.51-3.83C60.92,6.44,61,6.39,61,6.52ZM22.21,14.93a5.81,5.81,0,0,1-3.64,6.26C17.48,16.26,17.4,16.1,17.45,16h0a.1.1,0,0,1,.05,0Zm-.85,19a5.86,5.86,0,0,1,6,3.74c-5.21,1.15-4.81,1.1-4.91,1S22.48,39.05,21.36,33.92Zm8,3.31A7.83,7.83,0,0,0,20.93,32L19,23.15a7.78,7.78,0,0,0,5.16-8.65L53.58,8.05a7.79,7.79,0,0,0,8.9,5.34L63.27,17,51.82,13.47a4.64,4.64,0,0,0-5.72,6,5.41,5.41,0,1,0,.62,1.19,4.6,4.6,0,0,0,2.06,1.57l10.63,4.1a7.89,7.89,0,0,0-.66,4.41ZM42.43,25.89a3.39,3.39,0,1,1,2.56-4A3.38,3.38,0,0,1,42.43,25.89Zm23.45,3.32c-.1,0,.07,0-5.17,1.13a.2.2,0,0,0,0-.07,5.85,5.85,0,0,1,.59-3.19l4.58,1.76.06.26A.1.1,0,0,1,65.88,29.21ZM76.49,25,74.06,26.4a8.94,8.94,0,0,1-6.48.86c-.86-.16-1.07-.32-18.09-6.86a2.65,2.65,0,0,1,1.74-5c19.48,6,13.71,4.19,14.8,4.55a1,1,0,0,0,1.25-.66A1,1,0,0,0,66.62,18l-1.15-.35c-4.13-18.85-1.79-8.2-2.54-11.6a2.09,2.09,0,0,0-2.49-1.59L43,8.31l3.53-3.19A11.56,11.56,0,0,1,58.29,2.87l15,5.55c.77.3,1.19.21,3.16.18ZM94,29.52H78.5V5.07H94Z"/></g></svg>